<?xml version="1.0" encoding="UTF-8"?>
<!DOCTYPE svg PUBLIC "-//W3C//DTD SVG 1.1//EN" "http://www.w3.org/Graphics/SVG/1.1/DTD/svg11.dtd">
<svg version="1.1" xmlns="http://www.w3.org/2000/svg" xmlns:xlink="http://www.w3.org/1999/xlink" x="0" y="0" width="400" height="243" viewBox="0, 0, 400, 243">
  <g id="Layer_1">
    <g>
      <path d="M294.448,16.116 C344.758,16.116 385.543,63.074 385.543,120.999 C385.543,178.926 344.758,225.884 294.448,225.884 L105.551,225.884 C55.241,225.884 14.456,178.926 14.456,120.999 C14.456,63.074 55.241,16.116 105.551,16.116 L294.448,16.116 z M294.448,33.32 L105.551,33.32 C65.324,33.32 31.66,72.078 31.66,120.999 C31.66,169.92 65.324,208.68 105.551,208.68 L294.448,208.68 C334.676,208.68 368.338,169.92 368.338,120.999 C368.338,72.078 334.676,33.32 294.448,33.32 z" fill="#000000"/>
      <path d="M294.448,0.374 L294.489,0.376 L294.537,0.374 L295.715,0.382 L298.325,0.456 L301.011,0.608 L303.677,0.836 L306.327,1.141 L308.96,1.521 L311.571,1.976 L314.162,2.503 L316.732,3.102 L319.278,3.775 L321.801,4.516 L324.3,5.329 L326.771,6.208 L329.218,7.156 L331.637,8.17 L334.027,9.25 L336.387,10.394 L338.717,11.603 L341.017,12.874 L343.284,14.205 L345.521,15.597 L347.721,17.05 L349.889,18.559 L352.021,20.13 L354.117,21.755 L356.178,23.433 L358.199,25.17 L360.182,26.958 L362.126,28.8 L364.031,30.695 L365.895,32.639 L367.719,34.633 L369.499,36.675 L371.235,38.768 L372.929,40.906 L374.579,43.091 L376.182,45.321 L377.74,47.597 L379.25,49.915 L380.713,52.276 L382.128,54.679 L383.494,57.123 L384.809,59.607 L386.074,62.13 L387.286,64.69 L388.445,67.286 L389.553,69.92 L390.605,72.59 L391.603,75.294 L392.545,78.029 L393.428,80.798 L394.256,83.599 L395.025,86.428 L395.735,89.289 L396.384,92.174 L396.972,95.091 L397.499,98.032 L397.964,100.997 L398.364,103.986 L398.702,106.998 L398.974,110.032 L399.179,113.085 L399.32,116.16 L399.392,119.252 L399.403,120.901 C399.404,120.968 399.404,121.032 399.403,121.098 L399.397,122.454 L399.332,125.447 L399.203,128.522 L399.004,131.577 L398.74,134.612 L398.411,137.626 L398.019,140.618 L397.564,143.587 L397.044,146.53 L396.464,149.447 L395.823,152.337 L395.121,155.201 L394.36,158.034 L393.539,160.838 L392.662,163.612 L391.728,166.353 L390.738,169.058 L389.693,171.733 L388.594,174.371 L387.44,176.974 L386.234,179.54 L384.976,182.066 L383.667,184.555 L382.31,187.005 L380.901,189.412 L379.444,191.779 L377.938,194.103 L376.387,196.383 L374.788,198.621 L373.146,200.811 L371.459,202.957 L369.727,205.053 L367.952,207.103 L366.135,209.103 L364.278,211.054 L362.379,212.954 L360.44,214.803 L358.462,216.598 L356.444,218.34 L354.39,220.026 L352.301,221.659 L350.172,223.236 L348.011,224.753 L345.815,226.212 L343.585,227.613 L341.322,228.952 L339.027,230.232 L336.701,231.448 L334.344,232.6 L331.958,233.688 L329.544,234.711 L327.102,235.668 L324.633,236.558 L322.137,237.378 L319.618,238.132 L317.075,238.81 L314.508,239.422 L311.92,239.958 L309.309,240.423 L306.68,240.814 L304.031,241.128 L301.364,241.367 L298.68,241.529 L295.981,241.613 L294.537,241.626 L105.463,241.626 L104.284,241.618 L101.674,241.544 L98.99,241.392 L96.323,241.164 L93.672,240.859 L91.04,240.479 L88.428,240.024 L85.838,239.497 L83.268,238.898 L80.722,238.225 L78.199,237.484 L75.7,236.671 L73.229,235.792 L70.781,234.844 L68.363,233.83 L65.973,232.75 L63.612,231.605 L61.283,230.396 L58.982,229.126 L56.714,227.795 L54.479,226.403 L52.277,224.95 L50.11,223.441 L47.978,221.87 L45.882,220.245 L43.822,218.566 L41.802,216.83 L39.818,215.042 L37.873,213.2 L35.969,211.305 L34.105,209.361 L32.281,207.367 L30.502,205.323 L28.765,203.232 L27.07,201.094 L25.422,198.909 L23.817,196.679 L22.259,194.403 L20.748,192.085 L19.286,189.724 L17.871,187.321 L16.505,184.877 L15.19,182.393 L13.926,179.87 L12.714,177.31 L11.554,174.714 L10.446,172.08 L9.395,169.41 L8.397,166.706 L7.456,163.971 L6.571,161.202 L5.743,158.401 L4.974,155.572 L4.265,152.711 L3.616,149.824 L3.026,146.909 L2.501,143.968 L2.036,141.003 L1.635,138.014 L1.298,135.002 L1.025,131.968 L0.82,128.915 L0.68,125.84 L0.609,122.748 L0.596,121.098 L0.596,120.901 L0.604,119.546 L0.668,116.551 L0.798,113.478 L0.996,110.423 L1.259,107.388 L1.588,104.374 L1.98,101.382 L2.437,98.413 L2.955,95.47 L3.536,92.553 L4.178,89.663 L4.878,86.799 L5.64,83.965 L6.461,81.162 L7.337,78.388 L8.271,75.647 L9.262,72.94 L10.307,70.267 L11.406,67.629 L12.559,65.026 L13.765,62.46 L15.022,59.934 L16.333,57.444 L17.691,54.995 L19.1,52.586 L20.556,50.221 L22.061,47.897 L23.612,45.617 L25.209,43.379 L26.853,41.189 L28.54,39.043 L30.273,36.947 L32.047,34.897 L33.864,32.897 L35.722,30.946 L37.621,29.046 L39.56,27.197 L41.537,25.402 L43.555,23.66 L45.608,21.974 L47.699,20.341 L49.827,18.764 L51.988,17.247 L54.185,15.788 L56.416,14.387 L58.677,13.048 L60.973,11.768 L63.299,10.552 L65.656,9.399 L68.041,8.312 L70.456,7.289 L72.899,6.332 L75.367,5.442 L77.862,4.622 L80.381,3.869 L82.926,3.19 L85.491,2.578 L88.081,2.042 L90.691,1.577 L93.32,1.186 L95.97,0.872 L98.635,0.633 L101.319,0.471 L104.018,0.387 L105.463,0.374 L294.448,0.374 z M105.551,223.522 L105.54,224.421 L105.551,224.421 L105.551,223.522 z M105.64,31.857 L104.73,31.863 L102.742,31.914 L100.767,32.024 L98.808,32.191 L96.863,32.413 L94.934,32.69 L93.02,33.022 L91.123,33.407 L89.243,33.846 L87.379,34.336 L85.531,34.877 L83.703,35.468 L81.894,36.112 L80.103,36.805 L78.332,37.546 L76.581,38.335 L74.851,39.173 L73.141,40.057 L71.454,40.989 L69.79,41.965 L68.146,42.988 L66.529,44.053 L64.935,45.163 L63.366,46.316 L61.821,47.511 L60.304,48.748 L58.813,50.026 L57.349,51.344 L55.915,52.702 L54.508,54.1 L53.13,55.534 L51.785,57.008 L50.468,58.515 L49.182,60.06 L47.929,61.642 L46.709,63.256 L45.524,64.904 L44.37,66.586 L43.251,68.301 L42.169,70.047 L41.123,71.822 L40.112,73.63 L39.138,75.466 L38.201,77.33 L37.303,79.224 L36.445,81.143 L35.627,83.091 L34.846,85.063 L34.108,87.06 L33.411,89.084 L32.757,91.13 L32.144,93.2 L31.574,95.291 L31.047,97.406 L30.567,99.542 L30.131,101.699 L29.738,103.876 L29.393,106.074 L29.096,108.29 L28.844,110.525 L28.642,112.779 L28.486,115.05 L28.381,117.339 L28.326,119.743 L28.32,121.013 L28.323,121.963 L28.368,124.27 L28.465,126.558 L28.611,128.83 L28.805,131.086 L29.047,133.322 L29.338,135.54 L29.676,137.74 L30.057,139.919 L30.486,142.079 L30.96,144.219 L31.479,146.338 L32.041,148.434 L32.646,150.506 L33.293,152.558 L33.983,154.583 L34.713,156.587 L35.486,158.564 L36.298,160.516 L37.15,162.441 L38.042,164.338 L38.969,166.207 L39.937,168.05 L40.941,169.862 L41.981,171.644 L43.059,173.394 L44.171,175.114 L45.317,176.802 L46.498,178.456 L47.714,180.077 L48.96,181.663 L50.239,183.214 L51.549,184.73 L52.89,186.208 L54.262,187.65 L55.663,189.053 L57.091,190.418 L58.551,191.741 L60.036,193.027 L61.549,194.27 L63.086,195.473 L64.65,196.633 L66.239,197.75 L67.852,198.825 L69.489,199.854 L71.15,200.838 L72.833,201.776 L74.538,202.667 L76.263,203.515 L78.01,204.313 L79.777,205.062 L81.565,205.764 L83.37,206.416 L85.195,207.017 L87.038,207.569 L88.899,208.07 L90.777,208.517 L92.671,208.911 L94.582,209.254 L96.511,209.54 L98.455,209.773 L100.413,209.949 L102.385,210.07 L104.464,210.132 L105.64,210.143 L105.551,210.14 L294.448,210.14 L294.359,210.143 L295.271,210.137 L297.259,210.086 L299.232,209.976 L301.192,209.809 L303.136,209.587 L305.066,209.31 L306.979,208.978 L308.876,208.593 L310.758,208.154 L312.622,207.664 L314.469,207.123 L316.296,206.531 L318.105,205.888 L319.896,205.195 L321.668,204.454 L323.418,203.665 L325.148,202.827 L326.858,201.943 L328.547,201.011 L330.211,200.035 L331.851,199.012 L333.472,197.947 L335.065,196.837 L336.634,195.683 L338.178,194.489 L339.697,193.25 L341.185,191.974 L342.649,190.656 L344.085,189.298 L345.491,187.9 L346.868,186.466 L348.216,184.992 L349.533,183.485 L350.817,181.938 L352.069,180.358 L353.289,178.744 L354.476,177.096 L355.629,175.413 L356.747,173.699 L357.831,171.953 L358.878,170.178 L359.888,168.37 L360.862,166.534 L361.798,164.67 L362.697,162.776 L363.554,160.857 L364.374,158.909 L365.152,156.937 L365.892,154.94 L366.588,152.916 L367.244,150.87 L367.855,148.8 L368.426,146.707 L368.951,144.594 L369.433,142.458 L369.87,140.301 L370.261,138.124 L370.606,135.926 L370.905,133.71 L371.157,131.473 L371.358,129.221 L371.513,126.95 L371.618,124.661 L371.673,122.257 L371.681,120.977 L371.678,120.037 L371.631,117.73 L371.535,115.442 L371.388,113.168 L371.194,110.914 L370.952,108.678 L370.661,106.46 L370.325,104.26 L369.941,102.079 L369.513,99.921 L369.039,97.781 L368.521,95.662 L367.96,93.566 L367.355,91.494 L366.707,89.442 L366.017,87.417 L365.285,85.413 L364.513,83.436 L363.701,81.484 L362.85,79.559 L361.959,77.662 L361.03,75.793 L360.063,73.95 L359.057,72.138 L358.017,70.356 L356.941,68.606 L355.828,66.886 L354.681,65.198 L353.501,63.544 L352.287,61.923 L351.04,60.336 L349.761,58.786 L348.45,57.27 L347.11,55.792 L345.738,54.35 L344.337,52.947 L342.907,51.582 L341.45,50.259 L339.964,48.973 L338.452,47.73 L336.913,46.527 L335.349,45.367 L333.761,44.25 L332.147,43.175 L330.509,42.146 L328.85,41.162 L327.167,40.224 L325.462,39.331 L323.736,38.485 L321.989,37.687 L320.221,36.936 L318.435,36.236 L316.629,35.584 L314.804,34.981 L312.961,34.431 L311.1,33.93 L309.223,33.483 L307.328,33.087 L305.416,32.746 L303.488,32.46 L301.545,32.227 L299.586,32.051 L297.614,31.93 L295.537,31.866 L294.46,31.858 L294.448,31.858 L105.551,31.858 L105.64,31.857 z" fill="#000000"/>
    </g>
    <g>
      <path d="M108.619,104.002 C121.341,104.002 131.654,114.455 131.654,127.352 C131.751,131.498 130.617,134.298 129.075,137.999 C125.572,129.925 116.974,125.719 108.619,125.292 C100.396,125.529 91.481,130.035 88.162,137.999 C86.332,134.694 85.769,131.061 85.585,127.352 C85.585,114.455 95.898,104.002 108.619,104.002 z" fill="#000000"/>
      <path d="M108.619,104.002 L109.214,104.008" fill="#000000"/>
    </g>
    <g>
      <path d="M291.375,103.002 C304.095,103.002 314.408,113.455 314.408,126.352 C314.506,130.498 313.371,133.298 311.829,136.999 C308.327,128.925 299.728,124.719 291.375,124.292 C283.15,124.529 274.235,129.035 270.917,136.999 C269.087,133.694 268.524,130.061 268.34,126.352 C268.34,113.455 278.653,103.002 291.375,103.002 z" fill="#000000"/>
      <path d="M291.375,103.002 L291.969,103.008" fill="#000000"/>
    </g>
  </g>
</svg>
